#!OML:ASF H:\ManfredETheater\Project 1\Capture day 1\Session 1\subject.ASF
:FULLY-SPECIFIED
:DEGREES
62
root 4.30563 15.9256 -13.9918 13.6462 -25.1075 7.62829
lowerback 14.834 2.67524 -1.18962
upperback 1.28837 2.98072 -4.44359
thorax -6.76798 1.40953 -4.67326
lowerneck -13.3301 -11.2316 -11.4
upperneck 2.64871 -14.0154 11.6307
head 4.56414 -6.5478 4.14107
rclavicle 5.76476e-014 -3.08116e-014
rhumerus -25.5617 13.2764 -80.4947
rradius 119.714
rwrist -11.0601
rhand -31.3171 12.0261
rfingers 7.12502
rthumb -4.58933 -17.9041
lclavicle 5.76476e-014 -3.08116e-014
lhumerus -82.1246 -8.45961 75.4626
lradius 91.7893
lwrist 15.9919
lhand -15.3354 -10.4172
lfingers 7.12502
lthumb 10.8413 19.283
rfemur 8.9096 0.169652 38.0289
rtibia 23.6707
rfoot 21.6844 6.14648
rtoes -20.0016
lfemur -71.7175 -1.91459 -5.10503
ltibia 69.9456
lfoot -6.17787 -13.9261
ltoes -26.4561
63
root 3.99959 15.9325 -13.4098 13.5863 -24.7054 7.54274
lowerback 14.5301 2.59313 -0.825456
upperback 1.2727 2.95002 -4.38533
thorax -6.60245 1.38937 -4.79178
lowerneck -13.2874 -11.3311 -11.4592
upperneck 2.98961 -14.172 11.6467
head 4.68517 -6.61996 4.12938
rclavicle -6.95746e-016 2.32578e-014
rhumerus -26.671 13.2784 -80.8863
rradius 119.524
rwrist -10.8263
rhand -31.2259 11.693
rfingers 7.12502
rthumb -4.50123 -18.2392
lclavicle -6.95746e-016 2.32578e-014
lhumerus -82.0069 -7.40513 75.7879
lradius 93.1062
lwrist 16.0682
lhand -15.3548 -10.392
lfingers 7.12502
lthumb 10.8225 19.3092
rfemur 9.40487 0.835181 38.1289
rtibia 25.0093
rfoot 27.0214 7.39081
rtoes -19.0061
lfemur -71.4761 -2.55935 -5.76744
ltibia 65.9346
lfoot -4.75376 -15.0959
ltoes -27.9644
64
root 3.69351 15.937 -12.8333 13.5079 -24.3441 7.41208
lowerback 14.3143 2.49667 -0.454877
upperback 1.26387 2.89834 -4.28795
thorax -6.48209 1.35862 -4.87388
lowerneck -13.2775 -11.4036 -11.5318
upperneck 3.29834 -14.2853 11.6719
head 4.79869 -6.66999 4.12697
rclavicle 1.83876e-014 2.98177e-014
rhumerus -28.0316 13.2403 -81.4998
rradius 118.87
rwrist -10.7832
rhand -31.1296 11.2509
rfingers 7.12502
rthumb -4.40825 -18.6832
lclavicle 1.83876e-014 2.98177e-014
lhumerus -81.5216 -6.1947 76.1916
lradius 94.334
lwrist 16.1081
lhand -15.4888 -10.3958
lfingers 7.12502
lthumb 10.6932 19.3121
rfemur 9.06833 1.11578 38.2296
rtibia 27.9575
rfoot 29.9082 8.36208
rtoes -18.3412
lfemur -70.894 -3.11781 -6.4292
ltibia 62.441
lfoot -3.40996 -15.6346
ltoes -28.9266
65
root 3.38767 15.9402 -12.2632 13.3727 -24.0929 7.23074
lowerback 14.2141 2.40278 -0.0972909
upperback 1.28133 2.84543 -4.15368
thorax -6.40088 1.32737 -4.91544
lowerneck -13.296 -11.4392 -11.5982
upperneck 3.54016 -14.3429 11.706
head 4.89044 -6.69238 4.13358
rclavicle -2.31584e-014 1.96797e-014
rhumerus -29.5764 13.1435 -82.2894
rradius 117.768
rwrist -10.9063
rhand -31.032 10.7452
rfingers 7.12502
rthumb -4.31404 -19.1908
lclavicle -2.31584e-014 1.96797e-014
lhumerus -80.6887 -4.86944 76.7411
lradius 95.4802
lwrist 16.1207
lhand -15.7481 -10.4212
lfingers 7.12502
lthumb 10.4431 19.2994
rfemur 8.09713 1.00844 38.2769
rtibia 32.2652
rfoot 30.7057 9.05363
rtoes -17.4692
lfemur -69.9594 -3.58367 -7.02593
ltibia 59.6153
lfoot -2.49303 -15.5597
ltoes -29.2986
66
root 3.08265 15.9427 -11.7001 13.1453 -24.0042 7.01475
lowerback 14.2526 2.32172 0.216329
upperback 1.33408 2.80031 -3.99129
thorax -6.36228 1.30057 -4.91061
lowerneck -13.3315 -11.4288 -11.6266
upperneck 3.68966 -14.3354 11.7374
head 4.94631 -6.68356 4.14347
rclavicle 1.73937e-014 -1.23246e-014
rhumerus -31.2367 12.977 -83.2108
rradius 116.222
rwrist -11.1223
rhand -30.9715 10.2629
rfingers 7.12502
rthumb -4.2556 -19.6743
lclavicle 1.73937e-014 -1.23246e-014
lhumerus -79.5365 -3.4812 77.4951
lradius 96.5404
lwrist 16.126
lhand -16.0909 -10.4738
lfingers 7.12502
lthumb 10.1125 19.2632
rfemur 6.71213 0.57219 38.2153
rtibia 37.5649
rfoot 30.0037 9.2652
rtoes -16.0525
lfemur -68.6637 -3.98155 -7.49379
ltibia 57.5707
lfoot -2.30583 -14.9368
ltoes -29.2648
67
root 2.77925 15.9442 -11.1428 12.8034 -24.129 6.78449
lowerback 14.43 2.26332 0.454847
upperback 1.42568 2.7718 -3.81114
thorax -6.36248 1.28319 -4.85388
lowerneck -13.3586 -11.3582 -11.5901
upperneck 3.72993 -14.2478 11.7487
head 4.95186 -6.63781 4.15088
rclavicle -6.01324e-014 3.57812e-015
rhumerus -32.9437 12.7329 -84.2215
rradius 114.245
rwrist -11.357
rhand -30.9414 9.79417
rfingers 7.12502
rthumb -4.2266 -20.1436
lclavicle -6.01324e-014 3.57812e-015
lhumerus -78.0881 -2.08618 78.4973
lradius 97.5087
lwrist 16.1751
lhand -16.4739 -10.5207
lfingers 7.12502
lthumb 9.743 19.234
rfemur 5.07471 -0.083387 37.9948
rtibia 43.5227
rfoot 28.463 8.67462
rtoes -14.0345
lfemur -67.003 -4.31518 -7.80562
ltibia 56.3468
lfoot -2.97192 -13.954
ltoes -28.816
